<svg width="70" height="61" viewBox="0 0 70 61" fill="none" xmlns="http://www.w3.org/2000/svg">
<path d="M66.0994 17.6048C65.9683 16.2377 65.9498 13.8832 66.865 13.0925C66.8813 13.078 66.8935 13.0571 66.9078 13.0391C67.656 12.7071 68.1738 12.2411 67.7673 11.6141L56.7305 7L38.8593 10.4474C38.8593 10.4474 36.8129 10.8533 36.9957 15.2647C37.0949 17.6657 37.6377 18.8448 38.1123 19.4252L36.6458 20.0384C36.2388 20.6654 36.7565 21.1315 37.5048 21.463C37.519 21.4815 37.531 21.5023 37.5476 21.5168C38.4622 22.3081 38.4446 24.6624 38.313 26.0297C35.0275 27.3241 36.2069 27.746 36.2069 27.746L36.9276 27.9879C36.4206 28.6236 35.9172 29.8289 36.0115 32.1149C36.1944 36.5255 37.8753 36.8299 37.8753 36.8299L49.5701 42.104L67.222 36.1717C67.222 36.1717 68.4018 35.7492 65.1154 34.4546C64.9832 33.0895 64.9648 30.7355 65.8815 29.9422C65.8984 29.9281 65.9107 29.9067 65.9243 29.889C66.6726 29.557 67.1899 29.0914 66.7833 28.4644L66.0161 28.143C66.5278 27.7148 67.2964 26.5959 67.4168 23.6895C67.4999 21.6903 67.124 20.5195 66.6889 19.8302L68.2054 19.321C68.2055 19.3218 69.3853 18.8993 66.0994 17.6048ZM51.3346 17.5483L54.303 16.7018L64.3345 13.8416L65.829 13.415C65.3515 14.6277 65.3715 16.2874 65.4505 17.3541C65.4678 17.5954 65.4878 17.8157 65.5071 17.9832L63.8712 18.5476L51.2098 22.9178L51.3346 17.5483ZM38.5837 21.8407L40.078 22.2672L49.7118 25.015L50.5535 25.2541L53.0774 25.9739L53.2019 31.3436L40.1887 26.8515L38.9058 26.4091C38.9246 26.2414 38.9446 26.0212 38.9626 25.7793C39.0412 24.7134 39.0616 23.0534 38.5837 21.8407ZM38.0031 15.0524C37.985 13.879 38.1357 13.0304 38.4403 12.599C38.6342 12.3237 38.8629 12.2663 39.0198 12.2663C39.1027 12.2663 39.1624 12.2823 39.1664 12.2823L46.8667 15.7654L50.7084 17.5033L50.5824 22.9104L39.8048 18.718L39.236 18.497C39.2151 18.4888 39.1868 18.4832 39.1649 18.4818C39.1205 18.4774 38.0549 18.3413 38.0031 15.0524ZM49.598 39.7614L38.2519 35.3478C38.2309 35.3394 38.2028 35.3337 38.181 35.3322C38.1358 35.3281 37.0698 35.1921 37.0182 31.904C36.9998 30.7292 37.1513 29.8814 37.4553 29.4496C37.6497 29.1742 37.8785 29.1169 38.0351 29.1169C38.1182 29.1169 38.1777 29.1323 38.182 29.1323C38.182 29.1323 38.1825 29.1323 38.182 29.1323L49.7232 34.3541L49.598 39.7614ZM64.4655 34.2042C64.4834 34.4463 64.5034 34.6663 64.5227 34.8341L50.2252 39.769L50.3501 34.3994L53.4068 33.5274L53.8583 33.6789L55.5502 32.9159L63.3495 30.6922L64.8446 30.2655C64.3666 31.478 64.3864 33.1383 64.4655 34.2042ZM65.2531 26.9066C65.2271 26.9074 65.2011 26.9123 65.1766 26.923L64.0983 27.3419L53.8308 31.3364L53.7052 25.9293L57.0739 24.4048L65.2307 20.714C65.2317 20.7133 65.6597 20.5814 65.9739 21.0247C66.278 21.456 66.4289 22.3046 66.4111 23.478C66.3579 26.7658 65.2919 26.9025 65.2531 26.9066Z" fill="white"/>
</svg>
