<svg width="47" height="13" viewBox="0 0 63 30" fill="none" xmlns="http://www.w3.org/2000/svg">
<g filter="url(#filter0_d_7650_3369)">
<path d="M8 8C8 6.34314 9.34315 5 11 5H52C53.6569 5 55 6.34315 55 8V15.5778C55 17.2346 53.6569 18.5778 52 18.5778H11C9.34315 18.5778 8 17.2346 8 15.5778V8Z" fill="#EB5757"/>
</g>
<path d="M27.2564 9.7V16H25.5104L23.1164 13.138V16H21.0464V9.7H22.7924L25.1864 12.562V9.7H27.2564ZM33.5178 14.398V16H28.2798V9.7H33.4008V11.302H30.3678V12.04H33.0318V13.57H30.3678V14.398H33.5178ZM44.4986 9.7L42.4826 16H40.2056L39.1886 12.634L38.1176 16H35.8406L33.8246 9.7H36.0116L37.1096 13.282L38.2706 9.7H40.2236L41.3216 13.327L42.4826 9.7H44.4986Z" fill="white"/>
<defs>
<filter id="filter0_d_7650_3369" x="0" y="0" width="63" height="29.5778" filterUnits="userSpaceOnUse" color-interpolation-filters="sRGB">
<feFlood flood-opacity="0" result="BackgroundImageFix"/>
<feColorMatrix in="SourceAlpha" type="matrix" values="0 0 0 0 0 0 0 0 0 0 0 0 0 0 0 0 0 0 127 0" result="hardAlpha"/>
<feOffset dy="3"/>
<feGaussianBlur stdDeviation="4"/>
<feColorMatrix type="matrix" values="0 0 0 0 0.883333 0 0 0 0 0.415377 0 0 0 0 0 0 0 0 0.19 0"/>
<feBlend mode="normal" in2="BackgroundImageFix" result="effect1_dropShadow_7650_3369"/>
<feBlend mode="normal" in="SourceGraphic" in2="effect1_dropShadow_7650_3369" result="shape"/>
</filter>
</defs>
</svg>
