<svg width="283" height="107" viewBox="0 0 283 107" fill="none" xmlns="http://www.w3.org/2000/svg">
<path d="M75.8366 39.4575V29.6575H79.1406V36.8955H83.5646V39.4575H75.8366ZM84.4772 39.4575V29.6575H87.7812V39.4575H84.4772ZM89.3717 39.4575V29.6575H94.6077C95.9611 29.6575 96.9597 29.9002 97.6037 30.3855C98.2477 30.8615 98.5697 31.4729 98.5697 32.2195C98.5697 32.7142 98.4297 33.1575 98.1497 33.5495C97.8791 33.9322 97.4824 34.2355 96.9597 34.4595C96.4371 34.6835 95.7931 34.7955 95.0277 34.7955L95.3077 34.0395C96.0731 34.0395 96.7311 34.1469 97.2817 34.3615C97.8417 34.5762 98.2711 34.8889 98.5697 35.2995C98.8777 35.7009 99.0317 36.1862 99.0317 36.7555C99.0317 37.6049 98.6771 38.2675 97.9677 38.7435C97.2677 39.2195 96.2411 39.4575 94.8877 39.4575H89.3717ZM92.6197 37.1475H94.6077C94.9717 37.1475 95.2424 37.0822 95.4197 36.9515C95.6064 36.8209 95.6997 36.6295 95.6997 36.3775C95.6997 36.1255 95.6064 35.9342 95.4197 35.8035C95.2424 35.6729 94.9717 35.6075 94.6077 35.6075H92.3957V33.4235H94.1597C94.5331 33.4235 94.8037 33.3629 94.9717 33.2415C95.1491 33.1109 95.2377 32.9289 95.2377 32.6955C95.2377 32.4529 95.1491 32.2709 94.9717 32.1495C94.8037 32.0282 94.5331 31.9675 94.1597 31.9675H92.6197V37.1475ZM100.2 39.4575V29.6575H104.918C105.833 29.6575 106.621 29.8069 107.284 30.1055C107.956 30.4042 108.474 30.8335 108.838 31.3935C109.202 31.9442 109.384 32.5975 109.384 33.3535C109.384 34.1095 109.202 34.7629 108.838 35.3135C108.474 35.8549 107.956 36.2702 107.284 36.5595C106.621 36.8489 105.833 36.9935 104.918 36.9935H102.034L103.504 35.6355V39.4575H100.2ZM106.066 39.4575L103.658 35.8875H107.158L109.594 39.4575H106.066ZM103.504 35.9995L102.034 34.5015H104.708C105.165 34.5015 105.501 34.3989 105.716 34.1935C105.94 33.9882 106.052 33.7082 106.052 33.3535C106.052 32.9989 105.94 32.7189 105.716 32.5135C105.501 32.3082 105.165 32.2055 104.708 32.2055H102.034L103.504 30.7075V35.9995ZM109.567 39.4575L113.851 29.6575H117.099L121.383 39.4575H117.967L114.803 31.2255H116.091L112.927 39.4575H109.567ZM112.115 37.7495L112.955 35.3695H117.463L118.303 37.7495H112.115ZM121.911 39.4575V29.6575H126.629C127.543 29.6575 128.332 29.8069 128.995 30.1055C129.667 30.4042 130.185 30.8335 130.549 31.3935C130.913 31.9442 131.095 32.5975 131.095 33.3535C131.095 34.1095 130.913 34.7629 130.549 35.3135C130.185 35.8549 129.667 36.2702 128.995 36.5595C128.332 36.8489 127.543 36.9935 126.629 36.9935H123.745L125.215 35.6355V39.4575H121.911ZM127.777 39.4575L125.369 35.8875H128.869L131.305 39.4575H127.777ZM125.215 35.9995L123.745 34.5015H126.419C126.876 34.5015 127.212 34.3989 127.427 34.1935C127.651 33.9882 127.763 33.7082 127.763 33.3535C127.763 32.9989 127.651 32.7189 127.427 32.5135C127.212 32.3082 126.876 32.2055 126.419 32.2055H123.745L125.215 30.7075V35.9995ZM134.726 39.4575V35.1595L135.482 37.1335L131.03 29.6575H134.516L137.526 34.7675H135.496L138.534 29.6575H141.726L137.302 37.1335L138.03 35.1595V39.4575H134.726Z" fill="white"/>
<path d="M79.8541 75.2646L84.0141 66.1646H84.9631L89.1231 75.2646H88.1091L84.2871 66.7236H84.6771L80.8551 75.2646H79.8541ZM81.4921 72.8336L81.7781 72.0536H87.0691L87.3551 72.8336H81.4921ZM93.087 75.3296C92.437 75.3296 91.852 75.1823 91.332 74.8876C90.8207 74.593 90.4177 74.1856 90.123 73.6656C89.8283 73.137 89.681 72.5303 89.681 71.8456C89.681 71.1523 89.8283 70.5456 90.123 70.0256C90.4177 69.5056 90.8207 69.1026 91.332 68.8166C91.852 68.522 92.437 68.3746 93.087 68.3746C93.685 68.3746 94.218 68.509 94.686 68.7776C95.1627 69.0463 95.5397 69.4406 95.817 69.9606C96.103 70.472 96.246 71.1003 96.246 71.8456C96.246 72.5823 96.1073 73.2106 95.83 73.7306C95.5527 74.2506 95.1757 74.6493 94.699 74.9266C94.231 75.1953 93.6937 75.3296 93.087 75.3296ZM93.152 74.5106C93.6373 74.5106 94.0707 74.4023 94.452 74.1856C94.842 73.9603 95.1453 73.6483 95.362 73.2496C95.5873 72.8423 95.7 72.3743 95.7 71.8456C95.7 71.3083 95.5873 70.8403 95.362 70.4416C95.1453 70.043 94.842 69.7353 94.452 69.5186C94.0707 69.2933 93.6373 69.1806 93.152 69.1806C92.6753 69.1806 92.2463 69.2933 91.865 69.5186C91.4837 69.7353 91.1803 70.043 90.955 70.4416C90.7297 70.8403 90.617 71.3083 90.617 71.8456C90.617 72.3743 90.7297 72.8423 90.955 73.2496C91.1803 73.6483 91.4837 73.9603 91.865 74.1856C92.2463 74.4023 92.6753 74.5106 93.152 74.5106ZM95.726 75.2646V73.2106L95.817 71.8326L95.687 70.4546V65.6186H96.61V75.2646H95.726ZM107.709 68.3746C108.263 68.3746 108.744 68.483 109.152 68.6996C109.568 68.9076 109.888 69.2283 110.114 69.6616C110.348 70.095 110.465 70.641 110.465 71.2996V75.2646H109.542V71.3906C109.542 70.6713 109.368 70.1296 109.022 69.7656C108.684 69.393 108.203 69.2066 107.579 69.2066C107.111 69.2066 106.703 69.3063 106.357 69.5056C106.019 69.6963 105.754 69.978 105.564 70.3506C105.382 70.7146 105.291 71.1566 105.291 71.6766V75.2646H104.368V71.3906C104.368 70.6713 104.194 70.1296 103.848 69.7656C103.501 69.393 103.016 69.2066 102.392 69.2066C101.932 69.2066 101.529 69.3063 101.183 69.5056C100.836 69.6963 100.567 69.978 100.377 70.3506C100.195 70.7146 100.104 71.1566 100.104 71.6766V75.2646H99.1806V68.4396H100.065V70.2856L99.9216 69.9606C100.13 69.4666 100.463 69.081 100.923 68.8036C101.391 68.5176 101.941 68.3746 102.574 68.3746C103.241 68.3746 103.809 68.5436 104.277 68.8816C104.745 69.211 105.048 69.7093 105.187 70.3766L104.823 70.2336C105.022 69.679 105.373 69.2326 105.876 68.8946C106.387 68.548 106.998 68.3746 107.709 68.3746ZM112.968 75.2646V68.4396H113.891V75.2646H112.968ZM113.436 66.9316C113.245 66.9316 113.085 66.8666 112.955 66.7366C112.825 66.6066 112.76 66.4506 112.76 66.2686C112.76 66.0866 112.825 65.935 112.955 65.8136C113.085 65.6836 113.245 65.6186 113.436 65.6186C113.626 65.6186 113.787 65.6793 113.917 65.8006C114.047 65.922 114.112 66.0736 114.112 66.2556C114.112 66.4463 114.047 66.6066 113.917 66.7366C113.795 66.8666 113.635 66.9316 113.436 66.9316ZM119.943 68.3746C120.498 68.3746 120.983 68.483 121.399 68.6996C121.824 68.9076 122.153 69.2283 122.387 69.6616C122.63 70.095 122.751 70.641 122.751 71.2996V75.2646H121.828V71.3906C121.828 70.6713 121.646 70.1296 121.282 69.7656C120.927 69.393 120.424 69.2066 119.774 69.2066C119.289 69.2066 118.864 69.3063 118.5 69.5056C118.145 69.6963 117.867 69.978 117.668 70.3506C117.477 70.7146 117.382 71.1566 117.382 71.6766V75.2646H116.459V68.4396H117.343V70.3116L117.2 69.9606C117.417 69.4666 117.763 69.081 118.24 68.8036C118.717 68.5176 119.284 68.3746 119.943 68.3746ZM128.841 75.2646V66.1646H132.247C133.019 66.1646 133.682 66.2903 134.236 66.5416C134.791 66.7843 135.216 67.1396 135.51 67.6076C135.814 68.067 135.965 68.626 135.965 69.2846C135.965 69.926 135.814 70.4806 135.51 70.9486C135.216 71.408 134.791 71.7633 134.236 72.0146C133.682 72.266 133.019 72.3916 132.247 72.3916H129.374L129.803 71.9366V75.2646H128.841ZM129.803 72.0146L129.374 71.5466H132.221C133.131 71.5466 133.82 71.3516 134.288 70.9616C134.765 70.563 135.003 70.004 135.003 69.2846C135.003 68.5566 134.765 67.9933 134.288 67.5946C133.82 67.196 133.131 66.9966 132.221 66.9966H129.374L129.803 66.5416V72.0146ZM142.064 75.2646V73.7566L142.025 73.5096V70.9876C142.025 70.407 141.86 69.9606 141.531 69.6486C141.21 69.3366 140.729 69.1806 140.088 69.1806C139.646 69.1806 139.226 69.2543 138.827 69.4016C138.428 69.549 138.09 69.744 137.813 69.9866L137.397 69.2976C137.744 69.003 138.16 68.7776 138.645 68.6216C139.13 68.457 139.642 68.3746 140.179 68.3746C141.063 68.3746 141.743 68.5956 142.22 69.0376C142.705 69.471 142.948 70.134 142.948 71.0266V75.2646H142.064ZM139.711 75.3296C139.2 75.3296 138.753 75.2473 138.372 75.0826C137.999 74.9093 137.713 74.6753 137.514 74.3806C137.315 74.0773 137.215 73.7306 137.215 73.3406C137.215 72.9853 137.297 72.6646 137.462 72.3786C137.635 72.084 137.913 71.85 138.294 71.6766C138.684 71.4946 139.204 71.4036 139.854 71.4036H142.207V72.0926H139.88C139.221 72.0926 138.762 72.2096 138.502 72.4436C138.251 72.6776 138.125 72.968 138.125 73.3146C138.125 73.7046 138.277 74.0166 138.58 74.2506C138.883 74.4846 139.308 74.6016 139.854 74.6016C140.374 74.6016 140.82 74.4846 141.193 74.2506C141.574 74.008 141.852 73.6613 142.025 73.2106L142.233 73.8476C142.06 74.2983 141.756 74.658 141.323 74.9266C140.898 75.1953 140.361 75.3296 139.711 75.3296ZM148.939 68.3746C149.494 68.3746 149.979 68.483 150.395 68.6996C150.82 68.9076 151.149 69.2283 151.383 69.6616C151.626 70.095 151.747 70.641 151.747 71.2996V75.2646H150.824V71.3906C150.824 70.6713 150.642 70.1296 150.278 69.7656C149.923 69.393 149.42 69.2066 148.77 69.2066C148.285 69.2066 147.86 69.3063 147.496 69.5056C147.141 69.6963 146.863 69.978 146.664 70.3506C146.473 70.7146 146.378 71.1566 146.378 71.6766V75.2646H145.455V68.4396H146.339V70.3116L146.196 69.9606C146.413 69.4666 146.759 69.081 147.236 68.8036C147.713 68.5176 148.28 68.3746 148.939 68.3746ZM157.139 75.3296C156.428 75.3296 155.804 75.1823 155.267 74.8876C154.73 74.5843 154.309 74.1726 154.006 73.6526C153.703 73.124 153.551 72.5216 153.551 71.8456C153.551 71.1696 153.694 70.5716 153.98 70.0516C154.275 69.5316 154.673 69.1243 155.176 68.8296C155.687 68.5263 156.259 68.3746 156.892 68.3746C157.533 68.3746 158.101 68.522 158.595 68.8166C159.098 69.1026 159.492 69.51 159.778 70.0386C160.064 70.5586 160.207 71.161 160.207 71.8456C160.207 71.889 160.203 71.9366 160.194 71.9886C160.194 72.032 160.194 72.0796 160.194 72.1316H154.253V71.4426H159.7L159.336 71.7156C159.336 71.2216 159.228 70.784 159.011 70.4026C158.803 70.0126 158.517 69.7093 158.153 69.4926C157.789 69.276 157.369 69.1676 156.892 69.1676C156.424 69.1676 156.004 69.276 155.631 69.4926C155.258 69.7093 154.968 70.0126 154.76 70.4026C154.552 70.7926 154.448 71.239 154.448 71.7416V71.8846C154.448 72.4046 154.561 72.864 154.786 73.2626C155.02 73.6526 155.341 73.9603 155.748 74.1856C156.164 74.4023 156.636 74.5106 157.165 74.5106C157.581 74.5106 157.967 74.437 158.322 74.2896C158.686 74.1423 158.998 73.917 159.258 73.6136L159.778 74.2116C159.475 74.5756 159.093 74.853 158.634 75.0436C158.183 75.2343 157.685 75.3296 157.139 75.3296ZM162.086 75.2646V65.6186H163.009V75.2646H162.086Z" fill="white"/>
<line x1="76.635" y1="53.7236" x2="279.399" y2="53.7236" stroke="white" stroke-opacity="0.59"/>
<g clip-path="url(#clip0_257_1798)">
<path d="M62.272 37.8699C62.0008 34.6519 61.9626 29.1092 63.8559 27.2481C63.8897 27.214 63.9149 27.1647 63.9446 27.1224C65.4925 26.3408 66.5637 25.2439 65.7228 23.7678L42.8889 12.9062L5.91562 21.0215C5.91562 21.0215 1.68171 21.9769 2.05993 32.3614C2.26526 38.0133 3.38812 40.7891 4.3701 42.1552L1.33611 43.5986C0.494007 45.0746 1.56504 46.1719 3.11316 46.9522C3.14258 46.9958 3.16739 47.0448 3.20181 47.0789C5.09393 48.9416 5.05751 54.4836 4.78535 57.7023C-2.01208 60.7494 0.427968 61.7424 0.427968 61.7424L1.91905 62.312C0.87023 63.8082 -0.171386 66.6456 0.0237292 72.0268C0.402153 82.4094 3.87981 83.1259 3.87981 83.1259L28.0749 95.5413L64.5946 81.5766C64.5946 81.5766 67.0354 80.5821 60.2362 77.5346C59.9628 74.321 59.9248 68.7797 61.8213 66.9122C61.8561 66.879 61.8815 66.8288 61.9098 66.7871C63.4579 66.0055 64.5281 64.9095 63.687 63.4335L62.0997 62.6769C63.1583 61.6691 64.7484 59.0352 64.9976 52.1934C65.1695 47.4874 64.3918 44.7312 63.4917 43.1086L66.6292 41.91C66.6294 41.9119 69.0702 40.9174 62.272 37.8699ZM31.7255 37.7369L37.8667 35.7444L58.6206 29.0113L61.7126 28.0073C60.7247 30.862 60.7661 34.7688 60.9296 37.2798C60.9654 37.8478 61.0066 38.3666 61.0466 38.7608L57.6623 40.0893L31.4673 50.3769L31.7255 37.7369ZM5.34528 47.8412L8.43691 48.8452L28.3681 55.3135L30.1093 55.8765L35.331 57.5709L35.5886 70.2111L8.66584 59.6367L6.01167 58.5954C6.0507 58.2005 6.09192 57.6824 6.12934 57.1128C6.29184 54.6037 6.33406 50.6959 5.34528 47.8412ZM4.14417 31.8616C4.10675 29.0994 4.41853 27.1018 5.0487 26.0864C5.44974 25.4382 5.92302 25.3033 6.24761 25.3033C6.41911 25.3033 6.54259 25.3408 6.55099 25.3408L22.4818 33.5401L30.4299 37.6311L30.1692 50.3595L7.87157 40.4905L6.69488 39.9702C6.65165 39.9509 6.59302 39.9377 6.54779 39.9345C6.45594 39.9241 4.25143 39.6037 4.14417 31.8616ZM28.1326 90.0267L4.65887 79.6371C4.61545 79.6172 4.55741 79.604 4.51219 79.6005C4.41873 79.5907 2.21323 79.2707 2.10656 71.5304C2.06854 68.7648 2.38193 66.7691 3.0109 65.7527C3.41294 65.1045 3.88642 64.9696 4.21041 64.9696C4.38231 64.9696 4.50538 65.0059 4.51439 65.0059C4.51439 65.0059 4.51539 65.0059 4.51439 65.0059L28.3917 77.298L28.1326 90.0267ZM58.8918 76.9451C58.9288 77.5151 58.97 78.0329 59.01 78.4278L29.4301 90.0448L29.6887 77.4045L36.0126 75.3519L36.9466 75.7086L40.4471 73.9125L56.5828 68.6779L59.676 67.6733C58.6871 70.5277 58.7281 74.436 58.8918 76.9451ZM60.5211 59.7665C60.4673 59.7684 60.4135 59.7798 60.3628 59.8051L58.1319 60.7911L36.8898 70.1944L36.63 57.466L43.5993 53.8773L60.4747 45.189C60.4769 45.1874 61.3624 44.8769 62.0124 45.9204C62.6416 46.9358 62.9538 48.9334 62.917 51.6955C62.8069 59.4351 60.6014 59.7568 60.5211 59.7665Z" fill="white"/>
</g>
<defs>
<clipPath id="clip0_257_1798">
<rect width="67.0557" height="105.861" fill="white" transform="translate(0 0.303711)"/>
</clipPath>
</defs>
</svg>
